<svg viewBox="0 0 1024 1024" xmlns="http://www.w3.org/2000/svg" width="200" height="200"><path d="M320 128 64 128C25.6 128 0 102.4 0 64l0 0c0-38.4 25.6-64 64-64l256 0c38.4 0 64 25.6 64 64l0 0C384 102.4 358.4 128 320 128z"></path><path d="M0 320l0-256c0-38.4 25.6-64 64-64l0 0c38.4 0 64 25.6 64 64l0 256c0 38.4-25.6 64-64 64l0 0C25.6 384 0 358.4 0 320z"></path><path d="M0 960l0-256c0-38.4 25.6-64 64-64l0 0c38.4 0 64 25.6 64 64l0 256c0 38.4-25.6 64-64 64l0 0C25.6 1024 0 998.4 0 960z"></path><path d="M320 1024 64 1024c-38.4 0-64-25.6-64-64l0 0c0-38.4 25.6-64 64-64l256 0c38.4 0 64 25.6 64 64l0 0C384 998.4 358.4 1024 320 1024z"></path><path d="M704 128l256 0c38.4 0 64-25.6 64-64l0 0c0-38.4-25.6-64-64-64l-256 0c-38.4 0-64 25.6-64 64l0 0C640 102.4 665.6 128 704 128z"></path><path d="M1024 320 1024 64c0-38.4-25.6-64-64-64l0 0c-38.4 0-64 25.6-64 64l0 256c0 38.4 25.6 64 64 64l0 0C998.4 384 1024 358.4 1024 320z"></path><path d="M1024 960l0-256c0-38.4-25.6-64-64-64l0 0c-38.4 0-64 25.6-64 64l0 256c0 38.4 25.6 64 64 64l0 0C998.4 1024 1024 998.4 1024 960z"></path><path d="M704 1024l256 0c38.4 0 64-25.6 64-64l0 0c0-38.4-25.6-64-64-64l-256 0c-38.4 0-64 25.6-64 64l0 0C640 998.4 665.6 1024 704 1024z"></path></svg>
