<svg viewBox="0 0 1024 1024" xmlns="http://www.w3.org/2000/svg" width="200" height="200"><path d="M512 0c282.624 0 512 229.376 512 512s-229.376 512-512 512S0 794.624 0 512 229.376 0 512 0z m0 102.4c-226.304 0-409.6 183.296-409.6 409.6s183.296 409.6 409.6 409.6 409.6-183.296 409.6-409.6-183.296-409.6-409.6-409.6z m0 153.6c93.184 0 174.7456 49.8176 219.5456 124.3136l-87.7568 52.6848a153.6 153.6 0 1 0-0.0512 158.0544l87.808 52.6336A255.9488 255.9488 0 0 1 256 512c0-141.312 114.688-256 256-256z"></path></svg>
