<svg t="1587102977941" class="icon" viewBox="0 0 1024 1024" version="1.1" xmlns="http://www.w3.org/2000/svg" p-id="18426" width="200" height="200"><path d="M704.009593 771.014148c-120.239502-18.84623-159.65521-60.636009-159.708422-60.636009l-3.587712-3.818979 0 0.062422c-12.792351-12.211113-17.135262-33.870412-18.368346-52.709479 78.127382-60.136635 138.757251-174.21174 138.757251-301.881468 0-204.467835-136.731104-279.043321-244.146533-279.043321-107.386776 0-245.558695 74.575486-245.558695 279.043321 0 127.669728 62.160735 241.744833 140.318816 301.93775-1.176802 18.727527-5.550413 40.382733-18.434861 52.653197l-2.786463 2.994194c-0.409322 0.408299-39.677675 42.49279-160.481018 61.399395-16.989953 0.583285-87.957261 7.272637-118.562303 76.30078-16.821107 37.974893-9.978259 65.741283-1.263783 82.291215 20.662599 39.32975 66.126047 44.318368 77.395718 45.025473l653.994991 0c15.84999 0 69.143777-3.347235 89.103364-46.90324 8.512884-18.428721 13.032828-48.836265-13.264095-88.980567C783.660678 787.325649 731.715609 772.123412 704.009593 771.014148z" p-id="18427" fill="#606266"></path><path d="M1008.880139 738.320539c-23.710005-36.926004-60.22157-47.841611-79.70532-48.666396-84.469833-13.441127-112.173802-43.431162-112.228037-43.431162l-2.470261-2.703575c-8.976442-8.744151-12.087293-24.356734-12.911054-37.886889 54.879911-43.171242 93.799316-119.005394 93.799316-210.662931 0-146.801461-94.854345-214.627219-170.340573-214.627219-14.494109 0-29.350468 2.231831-43.906999 6.898107 3.993964 11.593036 7.458879 23.624047 10.568706 36.010145l-9.275247 0c0 0 52.476165 172.572404-10.270924 319.751465-2.993171-3.195785-5.988388-6.04467-8.866948-9.68457-9.269108 18.87386-19.775392 36.187177-31.400151 51.861158 6.812149 7.449669 13.972223 14.439874 21.661346 20.453844-0.821715 13.469779-3.934612 29.02608-13.031804 37.833677L638.564046 645.63765c-0.178055 0.177032-15.552208 16.782222-57.814754 30.870078 30.754444 3.285836 62.924121 8.103562 94.031607 14.792914 0.823761-0.821715 1.524726-1.645476 2.111081-2.231831 1.706875-1.763157 3.055592-3.6399 4.641717-5.519714 5.749958 3.055592 12.67774 6.751774 22.185278 11.976776 48.072879 26.41358 134.76738 69.851904 149.033291 85.87074l-2.231831 0c15.556301 19.078521 29.526477 41.031509 40.204677 64.395636l68.503187 0c11.147898 0 44.902676-12.325723 58.928111-43.494607l0.061398 0C1024.144798 788.973172 1027.371282 767.133771 1008.880139 738.320539z" p-id="18428" fill="#606266"></path></svg>
