<svg viewBox="0 0 1024 1024" xmlns="http://www.w3.org/2000/svg" width="200" height="200"><path d="M273.6 288.384H96a32 32 0 0 0 0 64h225.6a32 32 0 0 0 32-32V96a32 32 0 0 0-64 0v176.384a16 16 0 0 1-16 16zM273.6 736H96a32 32 0 1 1 0-64h225.6a32 32 0 0 1 32 32v224.384a32 32 0 0 1-64 0V752a16 16 0 0 0-16-16zM752 288.384h177.6a32 32 0 0 1 0 64H704a32 32 0 0 1-32-32V96a32 32 0 0 1 64 0v176.384a16 16 0 0 0 16 16zM752 736h177.6a32 32 0 1 0 0-64H704a32 32 0 0 0-32 32v224.384a32 32 0 0 0 64 0V752a16 16 0 0 1 16-16z"></path></svg>
